<svg width="12" height="12" viewBox="0 0 12 12" fill="none" xmlns="http://www.w3.org/2000/svg">
<g clip-path="url(#clip0_4763_5461)">
<path d="M11.7357 1.53888C12.0881 1.18649 12.0881 0.616666 11.7357 0.268026C11.3833 -0.0806151 10.8135 -0.0843639 10.4649 0.268026L6.00375 4.72913L1.53889 0.264277C1.1865 -0.0881126 0.616682 -0.0881126 0.268041 0.264277C-0.0805999 0.616666 -0.0843487 1.18649 0.268041 1.53513L4.72915 5.99623L0.264292 10.4611C-0.0880974 10.8135 -0.0880974 11.3833 0.264292 11.7319C0.616682 12.0806 1.1865 12.0843 1.53514 11.7319L5.99625 7.27083L10.4611 11.7357C10.8135 12.0881 11.3833 12.0881 11.732 11.7357C12.0806 11.3833 12.0843 10.8135 11.732 10.4648L7.27085 6.00373L11.7357 1.53888Z" fill="#BBBBBB"/>
</g>
<defs>
<clipPath id="clip0_4763_5461">
<rect width="12" height="12" fill="white"/>
</clipPath>
</defs>
</svg>
