<svg width="17" height="16" viewBox="0 0 17 16" fill="none" xmlns="http://www.w3.org/2000/svg">
<path d="M0.932969 2.66666C0.694836 2.66666 0.5 2.85193 0.5 3.07838C0.5 3.30484 0.694836 3.49011 0.932969 3.49011H1.95856C2.16422 3.49011 2.34282 3.6265 2.38341 3.8195L3.97728 11.2306C4.14235 11.9975 4.85134 12.5481 5.67398 12.5481H13.922C14.1602 12.5481 14.355 12.3629 14.355 12.1364C14.355 11.91 14.1602 11.7247 13.922 11.7247H5.67398C5.26266 11.7247 4.90816 11.4493 4.82427 11.0659L4.6132 10.0778H13.1237C13.9193 10.0778 14.6121 9.56311 14.8042 8.82972L15.9407 4.51429C16.076 3.99448 15.6647 3.49011 15.1019 3.49011H3.1817C3.0031 3.00119 2.5133 2.66666 1.95856 2.66666H0.932969ZM3.37112 4.31357H15.0992L13.9653 8.63157C13.8679 8.99698 13.5215 9.25431 13.1237 9.25431H4.4346L3.37112 4.31357ZM5.04617 14.4009C5.04617 14.2371 5.11459 14.08 5.23639 13.9642C5.35819 13.8484 5.52338 13.7833 5.69562 13.7833C5.86787 13.7833 6.03306 13.8484 6.15486 13.9642C6.27665 14.08 6.34508 14.2371 6.34508 14.4009C6.34508 14.5647 6.27665 14.7218 6.15486 14.8376C6.03306 14.9534 5.86787 15.0185 5.69562 15.0185C5.52338 15.0185 5.35819 14.9534 5.23639 14.8376C5.11459 14.7218 5.04617 14.5647 5.04617 14.4009ZM7.21101 14.4009C7.21101 14.2117 7.17182 14.0243 7.09566 13.8495C7.01951 13.6746 6.90788 13.5158 6.76717 13.3819C6.62645 13.2481 6.45939 13.142 6.27554 13.0696C6.09168 12.9971 5.89463 12.9599 5.69562 12.9599C5.49662 12.9599 5.29956 12.9971 5.11571 13.0696C4.93185 13.142 4.7648 13.2481 4.62408 13.3819C4.48336 13.5158 4.37174 13.6746 4.29559 13.8495C4.21943 14.0243 4.18023 14.2117 4.18023 14.4009C4.18023 14.5902 4.21943 14.7775 4.29559 14.9524C4.37174 15.1272 4.48336 15.2861 4.62408 15.4199C4.7648 15.5537 4.93185 15.6599 5.11571 15.7323C5.29956 15.8047 5.49662 15.842 5.69562 15.842C5.89463 15.842 6.09168 15.8047 6.27554 15.7323C6.45939 15.6599 6.62645 15.5537 6.76717 15.4199C6.90788 15.2861 7.01951 15.1272 7.09566 14.9524C7.17182 14.7775 7.21101 14.5902 7.21101 14.4009ZM12.6231 13.7833C12.7954 13.7833 12.9606 13.8484 13.0824 13.9642C13.2042 14.08 13.2726 14.2371 13.2726 14.4009C13.2726 14.5647 13.2042 14.7218 13.0824 14.8376C12.9606 14.9534 12.7954 15.0185 12.6231 15.0185C12.4509 15.0185 12.2857 14.9534 12.1639 14.8376C12.0421 14.7218 11.9737 14.5647 11.9737 14.4009C11.9737 14.2371 12.0421 14.08 12.1639 13.9642C12.2857 13.8484 12.4509 13.7833 12.6231 13.7833ZM12.6231 15.842C13.025 15.842 13.4105 15.6901 13.6947 15.4199C13.9789 15.1496 14.1385 14.7831 14.1385 14.4009C14.1385 14.0187 13.9789 13.6522 13.6947 13.3819C13.4105 13.1117 13.025 12.9599 12.6231 12.9599C12.2212 12.9599 11.8358 13.1117 11.5516 13.3819C11.2674 13.6522 11.1077 14.0187 11.1077 14.4009C11.1077 14.7831 11.2674 15.1496 11.5516 15.4199C11.8358 15.6901 12.2212 15.842 12.6231 15.842Z" fill="white"/>
</svg>
