<svg width="16" height="16" viewBox="0 0 16 16" fill="none" xmlns="http://www.w3.org/2000/svg">
<g clip-path="url(#clip0_1121_753)">
<path d="M8 0C8.275 0 8.5 0.225 8.5 0.5V2.02187C11.4156 2.2625 13.7375 4.5875 13.9781 7.5H15.5C15.775 7.5 16 7.725 16 8C16 8.275 15.775 8.5 15.5 8.5H13.9781C13.7375 11.4156 11.4125 13.7375 8.5 13.9781V15.5C8.5 15.775 8.275 16 8 16C7.725 16 7.5 15.775 7.5 15.5V13.9781C4.58437 13.7375 2.2625 11.4156 2.02187 8.5H0.5C0.225 8.5 0 8.275 0 8C0 7.725 0.225 7.5 0.5 7.5H2.02187C2.2625 4.58437 4.58437 2.2625 7.5 2.02187V0.5C7.5 0.225 7.725 0 8 0ZM3 8C3 9.32608 3.52678 10.5979 4.46447 11.5355C5.40215 12.4732 6.67392 13 8 13C9.32608 13 10.5979 12.4732 11.5355 11.5355C12.4732 10.5979 13 9.32608 13 8C13 6.67392 12.4732 5.40215 11.5355 4.46447C10.5979 3.52678 9.32608 3 8 3C6.67392 3 5.40215 3.52678 4.46447 4.46447C3.52678 5.40215 3 6.67392 3 8ZM10 8C10 7.46957 9.78929 6.96086 9.41421 6.58579C9.03914 6.21071 8.53043 6 8 6C7.46957 6 6.96086 6.21071 6.58579 6.58579C6.21071 6.96086 6 7.46957 6 8C6 8.53043 6.21071 9.03914 6.58579 9.41421C6.96086 9.78929 7.46957 10 8 10C8.53043 10 9.03914 9.78929 9.41421 9.41421C9.78929 9.03914 10 8.53043 10 8ZM5 8C5 7.20435 5.31607 6.44129 5.87868 5.87868C6.44129 5.31607 7.20435 5 8 5C8.79565 5 9.55871 5.31607 10.1213 5.87868C10.6839 6.44129 11 7.20435 11 8C11 8.79565 10.6839 9.55871 10.1213 10.1213C9.55871 10.6839 8.79565 11 8 11C7.20435 11 6.44129 10.6839 5.87868 10.1213C5.31607 9.55871 5 8.79565 5 8Z" fill="#E73439"/>
</g>
<defs>
<clipPath id="clip0_1121_753">
<rect width="16" height="16" fill="white"/>
</clipPath>
</defs>
</svg>
