<svg width="16" height="16" viewBox="0 0 16 16" fill="none" xmlns="http://www.w3.org/2000/svg">
<path d="M9 7.50002H6C3.93125 7.50002 2.1875 8.89689 1.6625 10.7969C1.55938 10.4094 1.5 9.97814 1.5 9.50002C1.5 7.29064 3.29063 5.50002 5.5 5.50002H9H9.75C10.1656 5.50002 10.5 5.16564 10.5 4.75002V4.00002V3.12189L14.2531 6.50002L10.5 9.87814V9.00002V8.25002C10.5 7.83439 10.1656 7.50002 9.75 7.50002H9ZM9 9.00002V10.5V11C9 11.3938 9.23125 11.7531 9.59375 11.9125C9.95625 12.0719 10.375 12.0063 10.6687 11.7438L15.6687 7.24377C15.8781 7.05314 16 6.78439 16 6.50002C16 6.21564 15.8812 5.94689 15.6687 5.75627L10.6687 1.25627C10.375 0.990644 9.95312 0.925019 9.59375 1.08752C9.23438 1.25002 9 1.60627 9 2.00002V2.50002V4.00002H7.5H5.5C2.4625 4.00002 0 6.46252 0 9.50002C0 11.9375 1.20625 13.4438 2.14687 14.2531C2.275 14.3625 2.4 14.4594 2.5125 14.5438C2.6125 14.6188 2.70625 14.6813 2.79063 14.7375C2.93125 14.8313 3.05 14.8969 3.12812 14.9406C3.20625 14.9844 3.29375 15 3.38125 15C3.72187 15 3.99688 14.7219 3.99688 14.3844C3.99688 14.1719 3.88437 13.9719 3.7375 13.8188C3.72187 13.8031 3.70937 13.7906 3.69375 13.775C3.61875 13.7031 3.53437 13.6156 3.45312 13.5063C3.4 13.4344 3.34688 13.35 3.29688 13.2594C3.13125 12.9563 3 12.5438 3 12.0031C3 10.3469 4.34375 9.00314 6 9.00314H7.5H9V9.00002Z" fill="#262626"/>
</svg>
