<svg width="16" height="16" viewBox="0 0 16 16" fill="none" xmlns="http://www.w3.org/2000/svg">
<g clip-path="url(#clip0_1086_15339)">
<path d="M8.00026 0C8.27917 0 8.53383 0.157071 8.6551 0.407782L10.7348 4.6759L15.3793 5.35855C15.6521 5.39782 15.8795 5.58812 15.9644 5.85091C16.0493 6.11371 15.9796 6.39764 15.7855 6.59096L12.4174 9.91967L13.2117 14.6197C13.2571 14.8916 13.145 15.1665 12.9206 15.3296C12.6963 15.4927 12.3961 15.5108 12.1536 15.3809L8.00026 13.1698L3.84994 15.3779C3.60438 15.5078 3.30728 15.4897 3.08294 15.3266C2.85859 15.1634 2.74339 14.8886 2.78887 14.6167L3.58316 9.91665L0.214999 6.59096C0.0179424 6.39764 -0.0487538 6.11068 0.0361323 5.85091C0.121018 5.59114 0.348392 5.40084 0.62124 5.35855L5.26572 4.6759L7.34543 0.407782C7.46972 0.157071 7.72135 0 8.00026 0ZM8.00026 2.38628L6.40865 5.65457C6.30254 5.86904 6.09942 6.02007 5.85992 6.05631L2.27349 6.5819L4.87767 9.15243C5.04441 9.31857 5.12323 9.55417 5.08382 9.78676L4.4684 13.4024L7.65769 11.7048C7.87293 11.5901 8.13062 11.5901 8.34284 11.7048L11.5321 13.4024L10.9197 9.78978C10.8803 9.5572 10.9561 9.32159 11.1259 9.15545L13.7301 6.58492L10.1436 6.05631C9.90717 6.02007 9.70101 5.87206 9.59491 5.65457L8.00026 2.38628Z" fill="#777777"/>
</g>
<defs>
<clipPath id="clip0_1086_15339">
<rect width="16" height="16" fill="white"/>
</clipPath>
</defs>
</svg>
