<svg width="180" height="180" viewBox="0 0 180 180" fill="none" xmlns="http://www.w3.org/2000/svg">
<g clip-path="url(#clip0_4397_20219)">
<path d="M34.1484 54.7519C39.8261 54.7519 44.4287 50.1618 44.4287 44.4997C44.4287 38.8375 39.8261 34.2474 34.1484 34.2474C28.4708 34.2474 23.8682 38.8375 23.8682 44.4997C23.8682 50.1618 28.4708 54.7519 34.1484 54.7519Z" fill="#E73439"/>
<path d="M84.1659 82.9651C84.1659 107.156 69.7456 115.602 51.9572 115.602C34.1689 115.602 19.7485 107.156 19.7485 82.9651C19.7485 58.7744 51.9572 28 51.9572 28C51.9572 28 84.1659 58.7744 84.1659 82.9651Z" fill="#DDDDDD"/>
<path d="M50.7841 111.902L51.1141 91.6565L64.8421 66.61L51.1658 88.4806L51.3141 79.3774L60.7755 61.2565L51.3533 76.9684L51.6199 60.5959L61.7514 46.1694L51.662 58.0213L51.8286 28L50.7813 67.7428L50.8674 66.1033L40.5667 50.3794L50.7022 69.2506L49.7425 87.5358L49.7139 87.0505L37.8389 70.5034L49.6779 88.7651L49.5579 91.0518L49.5364 91.0862L49.5462 91.274L47.1112 137.665H50.3646L50.7549 113.703L62.5647 95.4862L50.7841 111.902Z" fill="#444444"/>
<path d="M180 92.8729C180 112.674 168.196 119.588 153.636 119.588C139.075 119.588 127.271 112.674 127.271 92.8729C127.271 73.0717 153.636 47.8813 153.636 47.8813C153.636 47.8813 180 73.0717 180 92.8729Z" fill="#DDDDDD"/>
<path d="M152.676 116.559L152.945 99.9873L164.183 79.4855L152.988 97.3875L153.109 89.9362L160.854 75.1033L153.141 87.9643L153.36 74.5627L161.653 62.7538L153.394 72.4553L153.53 47.8813L152.673 80.4127L152.744 79.0708L144.312 66.1999L152.608 81.647L151.823 96.6143L151.799 96.217L142.079 82.6723L151.77 97.6204L151.672 99.4923L151.654 99.5205L151.662 99.6741L149.669 137.647H152.332L152.651 118.033L162.318 103.122L152.676 116.559Z" fill="#444444"/>
<path d="M89.0838 141.498C138.283 141.498 178.168 139.487 178.168 137.007C178.168 134.527 138.283 132.516 89.0838 132.516C39.8842 132.516 0 134.527 0 137.007C0 139.487 39.8842 141.498 89.0838 141.498Z" fill="#444444"/>
<path d="M143.353 145.196C151.779 145.196 158.611 144.851 158.611 144.426C158.611 144.002 151.779 143.657 143.353 143.657C134.926 143.657 128.095 144.002 128.095 144.426C128.095 144.851 134.926 145.196 143.353 145.196Z" fill="#444444"/>
<path d="M88.1403 152.616C96.567 152.616 103.398 152.271 103.398 151.846C103.398 151.422 96.567 151.077 88.1403 151.077C79.7135 151.077 72.8823 151.422 72.8823 151.846C72.8823 152.271 79.7135 152.616 88.1403 152.616Z" fill="#444444"/>
<path d="M46.2524 147.383C65.5045 147.383 81.1113 146.596 81.1113 145.625C81.1113 144.655 65.5045 143.868 46.2524 143.868C27.0004 143.868 11.3936 144.655 11.3936 145.625C11.3936 146.596 27.0004 147.383 46.2524 147.383Z" fill="#444444"/>
<path d="M15.5945 131.367C22.6028 131.367 28.2842 125.701 28.2842 118.712C28.2842 111.722 22.6028 106.056 15.5945 106.056C8.58617 106.056 2.90479 111.722 2.90479 118.712C2.90479 125.701 8.58617 131.367 15.5945 131.367Z" fill="#262626"/>
<path d="M13.5497 128.62L9.69482 128.575L9.61344 135.463L13.4683 135.508L13.5497 128.62Z" fill="#262626"/>
<path d="M21.2596 128.711L17.4048 128.665L17.3234 135.553L21.1782 135.598L21.2596 128.711Z" fill="#262626"/>
<path d="M16.0371 135.618C16.0449 134.955 14.613 134.4 12.8389 134.379C11.0648 134.358 9.62018 134.879 9.61234 135.543C9.6045 136.206 11.0364 136.761 12.8105 136.782C14.5846 136.802 16.0292 136.282 16.0371 135.618Z" fill="#262626"/>
<path d="M23.749 135.548C23.7568 134.885 22.3249 134.33 20.5508 134.309C18.7767 134.289 17.3321 134.809 17.3243 135.473C17.3164 136.136 18.7483 136.691 20.5224 136.712C22.2966 136.733 23.7411 136.212 23.749 135.548Z" fill="#262626"/>
<path d="M15.9537 119.837C18.3489 119.837 20.2907 117.9 20.2907 115.512C20.2907 113.123 18.3489 111.187 15.9537 111.187C13.5584 111.187 11.6167 113.123 11.6167 115.512C11.6167 117.9 13.5584 119.837 15.9537 119.837Z" fill="white"/>
<path d="M15.9535 116.953C16.7519 116.953 17.3991 116.308 17.3991 115.512C17.3991 114.715 16.7519 114.07 15.9535 114.07C15.1551 114.07 14.5078 114.715 14.5078 115.512C14.5078 116.308 15.1551 116.953 15.9535 116.953Z" fill="#444444"/>
<path d="M3.42497 106.799C2.45447 102.211 5.78423 97.6254 10.8622 96.5571C15.9401 95.4888 20.8434 98.3421 21.8139 102.93C22.7844 107.518 19.4079 109.166 14.33 110.235C9.25202 111.303 4.39547 111.387 3.42497 106.799Z" fill="#E73439"/>
<path d="M34.9517 125.772C34.9517 134.594 29.6927 137.675 23.2048 137.675C23.0545 137.675 22.9045 137.673 22.7547 137.67C22.4541 137.663 22.1563 137.649 21.8622 137.629C16.007 137.216 11.458 133.977 11.458 125.772C11.458 117.28 22.3388 106.565 23.1562 105.772L23.1576 105.771C23.1891 105.74 23.2048 105.725 23.2048 105.725C23.2048 105.725 34.9517 116.949 34.9517 125.772Z" fill="#E73439"/>
<path d="M22.7767 136.325L27.073 130.338L22.7659 136.982L22.7545 137.67C22.4539 137.663 22.1562 137.649 21.862 137.629L22.3251 128.802L22.3215 128.734L22.3294 128.721L22.373 127.887L18.0552 121.226L22.3866 127.262L22.3966 127.439L22.7466 120.77L19.05 113.887L22.7917 119.599L23.156 105.772L23.1574 105.725V105.771L23.0966 116.674L26.7767 112.352L23.0816 117.613L22.9842 123.585L26.4203 117.854L22.9699 124.463L22.9155 127.783L27.904 119.807L22.8969 128.941L22.7767 136.325Z" fill="#444444"/>
<path d="M114.446 131.23C121.454 131.23 127.136 125.564 127.136 118.575C127.136 111.585 121.454 105.92 114.446 105.92C107.438 105.92 101.756 111.585 101.756 118.575C101.756 125.564 107.438 131.23 114.446 131.23Z" fill="#262626"/>
<path d="M115.529 128.633L111.844 129.762L113.873 136.347L117.558 135.217L115.529 128.633Z" fill="#262626"/>
<path d="M122.899 126.375L119.214 127.504L121.243 134.089L124.928 132.959L122.899 126.375Z" fill="#262626"/>
<path d="M117.322 136.631C119.018 136.111 120.234 135.175 120.039 134.541C119.843 133.907 118.31 133.814 116.614 134.334C114.918 134.854 113.701 135.789 113.897 136.423C114.092 137.058 115.626 137.15 117.322 136.631Z" fill="#262626"/>
<path d="M124.644 134.219C126.34 133.699 127.557 132.763 127.361 132.129C127.166 131.495 125.633 131.402 123.937 131.922C122.241 132.442 121.024 133.377 121.22 134.011C121.415 134.646 122.948 134.738 124.644 134.219Z" fill="#262626"/>
<path d="M113.809 119.743C116.204 119.743 118.146 117.807 118.146 115.418C118.146 113.029 116.204 111.093 113.809 111.093C111.414 111.093 109.472 113.029 109.472 115.418C109.472 117.807 111.414 119.743 113.809 119.743Z" fill="white"/>
<path d="M113.809 116.86C114.608 116.86 115.255 116.214 115.255 115.418C115.255 114.622 114.608 113.976 113.809 113.976C113.011 113.976 112.364 114.622 112.364 115.418C112.364 116.214 113.011 116.86 113.809 116.86Z" fill="#444444"/>
<path d="M99.2129 110.931C96.8854 106.857 98.6541 101.477 103.163 98.9154C107.673 96.3534 113.215 97.5793 115.542 101.653C117.87 105.728 115.158 108.324 110.649 110.886C106.14 113.448 101.54 115.005 99.2129 110.931Z" fill="#E73439"/>
<path d="M91.8146 124.156C91.8146 132.255 86.9871 135.083 81.0316 135.083C80.8936 135.083 80.7559 135.081 80.6183 135.078C80.3424 135.072 80.0691 135.059 79.7991 135.041C74.4243 134.661 70.2485 131.688 70.2485 124.156C70.2485 116.361 80.2366 106.525 80.9869 105.798L80.9882 105.796C81.0171 105.768 81.0316 105.754 81.0316 105.754C81.0316 105.754 91.8146 116.057 91.8146 124.156Z" fill="#E73439"/>
<path d="M80.6383 133.844L84.5822 128.348L80.6284 134.447L80.6179 135.078C80.342 135.072 80.0687 135.059 79.7987 135.041L80.2237 126.938L80.2205 126.875L80.2277 126.863L80.2678 126.098L76.3042 119.984L80.2802 125.524L80.2895 125.686L80.6107 119.564L77.2174 113.246L80.6521 118.49L80.9865 105.798L80.9878 105.754V105.796L80.932 115.805L84.3102 111.837L80.9182 116.667L80.8288 122.148L83.983 116.888L80.8157 122.955L80.7658 126.002L85.3449 118.681L80.7487 127.066L80.6383 133.844Z" fill="#444444"/>
<path d="M134.221 127.534C134.221 136.356 128.962 139.437 122.474 139.437C122.324 139.437 122.174 139.435 122.024 139.432C121.723 139.425 121.425 139.411 121.131 139.391C115.276 138.978 110.727 135.739 110.727 127.534C110.727 119.042 121.608 108.327 122.425 107.534L122.427 107.533C122.458 107.502 122.474 107.487 122.474 107.487C122.474 107.487 134.221 118.711 134.221 127.534Z" fill="#E73439"/>
<path d="M122.046 138.087L126.342 132.1L122.035 138.744L122.024 139.432C121.723 139.425 121.425 139.411 121.131 139.391L121.594 130.564L121.591 130.496L121.598 130.483L121.642 129.649L117.324 122.988L121.656 129.024L121.666 129.201L122.016 122.532L118.319 115.649L122.061 121.361L122.425 107.534L122.426 107.487V107.533L122.366 118.436L126.046 114.114L122.351 119.375L122.253 125.347L125.689 119.616L122.239 126.225L122.185 129.545L127.173 121.569L122.166 130.703L122.046 138.087Z" fill="#444444"/>
<path d="M115.252 126.15C115.724 125.159 113.539 123.142 110.373 121.644C107.207 120.147 104.258 119.736 103.787 120.727C103.315 121.719 105.5 123.736 108.666 125.234C111.832 126.731 114.781 127.142 115.252 126.15Z" fill="#262626"/>
<path d="M17.5853 124.992C17.9945 123.974 15.6896 122.094 12.4369 120.794C9.18431 119.494 6.21576 119.265 5.80648 120.284C5.39721 121.302 7.7022 123.182 10.9548 124.482C14.2074 125.782 17.176 126.01 17.5853 124.992Z" fill="#262626"/>
</g>
<defs>
<clipPath id="clip0_4397_20219">
<rect width="180" height="180" fill="white"/>
</clipPath>
</defs>
</svg>
