<svg width="16" height="16" viewBox="0 0 16 16" fill="none" xmlns="http://www.w3.org/2000/svg">
<g clip-path="url(#clip0_1086_15341)">
<path d="M8.87046 0.543689C8.70987 0.211435 8.37051 0 7.99782 0C7.62514 0 7.28881 0.211435 7.12519 0.543689L5.17691 4.5398L0.825864 5.18015C0.462267 5.23452 0.159269 5.48824 0.04716 5.8356C-0.0649493 6.18295 0.02595 6.56656 0.286528 6.8233L3.44377 9.93743L2.69839 14.3383C2.63779 14.7008 2.78929 15.0693 3.08926 15.2837C3.38923 15.4982 3.78615 15.5253 4.11339 15.3532L8.00085 13.2841L11.8883 15.3532C12.2156 15.5253 12.6125 15.5012 12.9124 15.2837C13.2124 15.0662 13.3639 14.7008 13.3033 14.3383L12.5549 9.93743L15.7121 6.8233C15.9727 6.56656 16.0667 6.18295 15.9515 5.8356C15.8364 5.48824 15.5364 5.23452 15.1728 5.18015L10.8187 4.5398L8.87046 0.543689Z" fill="#E8B233"/>
</g>
<defs>
<clipPath id="clip0_1086_15341">
<rect width="16" height="16" fill="white"/>
</clipPath>
</defs>
</svg>
