<svg width="375" height="200" viewBox="0 0 375 200" fill="none" xmlns="http://www.w3.org/2000/svg">
<g clip-path="url(#clip0_7912_7400)">
<rect width="375" height="200" fill="#E73439"/>
<g clip-path="url(#clip1_7912_7400)">
<path d="M464.884 83.8184C469.738 90.2089 472.287 95.9214 472.382 102.354C472.46 108.804 470.081 114.514 465.422 120.898C460.754 127.297 453.833 134.323 444.88 143.41C435.926 152.498 429.003 159.524 422.674 164.288C416.359 169.041 410.685 171.505 404.239 171.52C397.794 171.504 392.046 169.039 385.588 164.283C379.117 159.518 371.983 152.492 362.762 143.407L362.675 143.321C353.495 134.277 346.381 127.268 341.529 120.886C336.672 114.497 334.122 108.786 334.034 102.354C333.956 95.9039 336.335 90.1935 340.993 83.8097C345.662 77.4113 352.582 70.3854 361.536 61.2977C370.489 52.21 377.42 45.1773 383.752 40.4095C390.07 35.6525 395.744 33.1891 402.176 33.1878C408.625 33.2002 414.375 35.664 420.834 40.4188C427.306 45.1832 434.439 52.2094 443.661 61.2947C452.882 70.3799 460.021 77.4146 464.884 83.8184Z" stroke="#EB565A"/>
<path d="M202.391 360.757C193.301 371.801 182.931 378.168 167.715 379.719C152.408 381.244 135.825 377.603 114.961 369.555C94.0956 361.507 69.005 349.073 36.6861 333.056C4.36727 317.04 -20.729 304.602 -39.7742 292.872C-58.8179 281.143 -71.7583 270.152 -79.8043 257.054C-87.7579 243.983 -88.9652 231.878 -85.6833 217.966C-82.3908 204.008 -74.5872 188.255 -64.4997 167.899L-64.4009 167.7C-54.361 147.441 -46.5761 131.732 -37.4945 120.682C-28.4127 109.631 -18.0499 103.261 -2.82614 101.724C12.4814 100.199 29.0648 103.84 49.9286 111.888C70.7944 119.937 95.885 132.37 128.204 148.387C160.523 164.403 185.643 176.853 204.701 188.589C223.757 200.324 236.697 211.315 244.694 224.388C252.66 237.466 253.873 249.574 250.595 263.488C247.305 277.447 239.502 293.2 229.414 313.556C219.327 333.911 211.51 349.677 202.391 360.757Z" stroke="#EB565A"/>
<path d="M427.789 159.799C451.72 151.032 464.99 146.17 470.484 134.177C475.933 122.2 470.982 108.685 462.086 84.4006C453.19 60.1166 448.252 46.6377 436.342 40.9784C424.446 35.3557 411.13 40.2338 387.2 49.0005C363.269 57.7672 349.998 62.6287 344.504 74.6221C339.043 86.593 344.016 100.111 352.912 124.395C361.808 148.679 366.746 162.158 378.646 167.821C390.579 173.43 403.858 168.565 427.789 159.799Z" fill="#EB565A"/>
<path d="M34.5272 329.981C81.1764 344.679 107.046 352.829 128.914 342.712C150.694 332.568 158.18 308.806 171.632 266.113C185.083 223.419 192.549 199.722 180.538 178.86C168.507 158.063 142.549 149.885 95.9002 135.187C49.2511 120.49 23.3818 112.339 1.51374 122.456C-20.2788 132.578 -27.7352 156.367 -41.1865 199.061C-54.6379 241.755 -62.1041 265.452 -50.1106 286.308C-38.0088 307.127 -12.122 315.283 34.5272 329.981Z" fill="#EB565A"/>
</g>
</g>
<defs>
<clipPath id="clip0_7912_7400">
<rect width="375" height="200" fill="white"/>
</clipPath>
<clipPath id="clip1_7912_7400">
<rect width="375" height="387" fill="white" transform="translate(0 20)"/>
</clipPath>
</defs>
</svg>
